<svg xmlns="http://www.w3.org/2000/svg" xmlns:xlink="http://www.w3.org/1999/xlink" width="64" zoomAndPan="magnify" viewBox="0 0 48 48" height="64" preserveAspectRatio="xMidYMid meet" version="1.0"><defs><clipPath id="id1"><path d="M 12.269531 11.90625 L 35.722656 11.90625 L 35.722656 35.417969 L 12.269531 35.417969 Z M 12.269531 11.90625 " clip-rule="nonzero"/></clipPath></defs><g clip-path="url(#id1)"><path fill="#5ce1e6" d="M 32.824219 24.632812 L 18.851562 24.632812 C 18.828125 24.375 18.816406 24.121094 18.8125 23.859375 L 12.847656 23.859375 C 12.527344 23.859375 12.269531 23.59375 12.28125 23.269531 C 12.28125 23.261719 12.28125 23.257812 12.28125 23.253906 C 12.289062 22.941406 12.539062 22.695312 12.847656 22.695312 L 32.824219 22.695312 C 33.238281 22.695312 33.554688 22.320312 33.488281 21.902344 C 33.488281 21.898438 33.488281 21.894531 33.488281 21.890625 C 33.433594 21.558594 33.152344 21.3125 32.820312 21.3125 L 19.046875 21.3125 C 19.101562 21.054688 19.164062 20.796875 19.234375 20.542969 L 13.507812 20.542969 C 13.109375 20.542969 12.832031 20.136719 12.972656 19.757812 C 12.976562 19.753906 12.976562 19.75 12.980469 19.746094 C 13.0625 19.523438 13.273438 19.378906 13.511719 19.378906 L 31.683594 19.378906 C 32.195312 19.378906 32.523438 18.816406 32.269531 18.359375 C 32.269531 18.355469 32.265625 18.351562 32.261719 18.347656 C 32.144531 18.132812 31.917969 17.996094 31.675781 17.996094 L 20.285156 17.996094 C 20.433594 17.730469 20.59375 17.476562 20.761719 17.226562 L 15.539062 17.226562 C 15.042969 17.226562 14.78125 16.625 15.117188 16.253906 C 15.121094 16.25 15.125 16.246094 15.128906 16.242188 C 15.238281 16.125 15.386719 16.058594 15.546875 16.058594 L 28.75 16.058594 C 29.410156 16.058594 29.675781 15.203125 29.140625 14.816406 C 29.136719 14.8125 29.128906 14.808594 29.125 14.804688 C 29.011719 14.722656 28.875 14.679688 28.734375 14.679688 L 23.09375 14.679688 C 23.421875 14.414062 23.765625 14.167969 24.121094 13.945312 C 19.546875 13.8125 15.863281 15.515625 15.863281 15.515625 C 17.964844 13.296875 20.917969 11.914062 24.191406 11.910156 C 30.585938 11.90625 35.757812 17.148438 35.769531 23.644531 C 35.78125 30.144531 30.597656 35.414062 24.199219 35.414062 C 20.925781 35.414062 17.964844 34.03125 15.863281 31.8125 C 15.863281 31.8125 19.546875 33.515625 24.121094 33.382812 C 23.765625 33.15625 23.421875 32.914062 23.09375 32.648438 L 28.734375 32.648438 C 28.875 32.648438 29.011719 32.605469 29.125 32.523438 C 29.128906 32.519531 29.136719 32.515625 29.140625 32.511719 C 29.675781 32.125 29.410156 31.265625 28.75 31.265625 L 21.652344 31.265625 C 21.4375 31.019531 21.230469 30.761719 21.035156 30.496094 L 14.90625 30.496094 C 14.726562 30.496094 14.5625 30.410156 14.453125 30.265625 C 14.449219 30.261719 14.445312 30.257812 14.445312 30.253906 C 14.160156 29.875 14.429688 29.332031 14.898438 29.332031 L 31.675781 29.332031 C 31.917969 29.332031 32.144531 29.195312 32.261719 28.980469 C 32.265625 28.976562 32.269531 28.972656 32.269531 28.964844 C 32.523438 28.511719 32.195312 27.949219 31.683594 27.949219 L 19.625 27.949219 C 19.527344 27.695312 19.433594 27.441406 19.351562 27.179688 L 13.25 27.179688 C 13 27.179688 12.777344 27.007812 12.707031 26.765625 C 12.707031 26.761719 12.703125 26.757812 12.703125 26.753906 C 12.597656 26.382812 12.867188 26.015625 13.246094 26.015625 L 32.820312 26.015625 C 33.152344 26.015625 33.433594 25.769531 33.488281 25.4375 C 33.488281 25.433594 33.488281 25.429688 33.488281 25.425781 C 33.554688 25.007812 33.238281 24.632812 32.824219 24.632812 " fill-opacity="1" fill-rule="nonzero"/></g></svg>